<?xml version="1.0" encoding="utf-8"?>
<!-- Generator: Adobe Illustrator 20.1.0, SVG Export Plug-In . SVG Version: 6.00 Build 0)  -->
<svg version="1.1" id="Layer_1" xmlns="http://www.w3.org/2000/svg" xmlns:xlink="http://www.w3.org/1999/xlink" x="0px" y="0px"
	 viewBox="0 0 382.7 411" style="enable-background:new 0 0 382.7 411;" xml:space="preserve">
<style type="text/css">
	.st0{fill:#d10000;stroke:#d10000;stroke-width:6;stroke-miterlimit:10;}
	.st1{fill:#d10000;stroke:#d10000;stroke-width:6;stroke-miterlimit:10;}
	.st2{display:none;}
	.st3{display:inline;fill:none;stroke:#000000;stroke-width:10;stroke-miterlimit:10;}
	.st4{display:inline;fill:none;stroke:#000000;stroke-width:3;stroke-miterlimit:10;}
</style>
<g id="Layer_1_1_">
	<polygon class="st0" points="4.2,4.3 181.4,4.3 181.4,73 161.6,92.8 161.6,24.1 4.2,24.1 	"/>
	<polygon class="st0" points="378.4,4.3 201.2,4.3 201.2,73 221.1,92.8 221.1,24.1 378.4,24.1 	"/>
	<polygon class="st0" points="161.6,406.8 181.4,406.8 181.4,156.6 161.6,176.5 	"/>
	<polygon class="st0" points="221.1,406.8 201.2,406.8 201.2,161.6 221.1,181.4 	"/>
	<polygon class="st1" points="4.2,43.9 141.7,43.9 141.7,141 191.3,91.4 240.9,141 240.9,43.9 378.4,43.9 378.4,63.8 262.2,63.8 
		262.2,192 191.3,121.2 120.5,192 120.5,63.8 4.2,63.8 	"/>
</g>
<g id="Layer_2" class="st2">
	<circle class="st3" cx="191.3" cy="205.5" r="262.9"/>
	<ellipse class="st4" cx="191.3" cy="205.5" rx="283.5" ry="277.3"/>
</g>
</svg>
